# xmcd
#
# Track frame offsets:
#	150
#	15779
#	26155
#	40503
#	52180
#	61314
#	75815
#	87502
#	105933
#	118180
#
# Disc length: 1760 seconds
#
# Revision: 1
# Processed by: cddbd v1.5.2PL0 Copyright (c) Steve Scherf et al.
# Submitted via: audiograbber 1.83.01
#
DISCID=6b06de0a
DTITLE=Wanda Jackson - Praise The Lord
DYEAR=1972
DGENRE=Gospel
TTITLE0=The King Is Coming
TTITLE1=My Testimony
TTITLE2=Didn't He Shine
TTITLE3=He Gives Us All His Love
TTITLE4=People Gotta Be Loving
TTITLE5=How Great Thou Art
TTITLE6=Am I Not My Brother's Keeper
TTITLE7=Oh Happy Day
TTITLE8=He's The Man
TTITLE9=Battle Hymn Of The Republic
EXTD=
EXTT0=
EXTT1=
EXTT2=
EXTT3=
EXTT4=
EXTT5=
EXTT6=
EXTT7=
EXTT8=
EXTT9=
PLAYORDER=
